# xmcd
#
# Track frame offsets:
#	150
#	12602
#	24430
#	36555
#	48642
#	60770
#	68070
#	84727
#	96312
#	107285
#	121905
#	138145
#	145327
#	152867
#	165212
#	177245
#	187515
#	200652
#	213192
#	225362
#	237300
#	247950
#	261145
#	275190
#	290112
#	302387
#	316917
#	326845
#
# Disc length: 4521 seconds
#
# Revision: 0
# Processed by: cddbd v1.4PL0 Copyright (c) Steve Scherf et al.
# Submitted via: dBpowerAMP V4.0
#
DISCID=8411a71c
DTITLE=Hank Snow  - Thesaurus Transcriptions Vol 2
DYEAR=1991
DGENRE=Country
TTITLE0=Headin' Down The Wrong Highway - 1951
TTITLE1=Lonely - 1951
TTITLE2=Blue Eyes Crying In The Rain - 1951
TTITLE3=These Tears Are Not For You - 1951
TTITLE4=Jealous Heart - 1951
TTITLE5=Hawaiian Cowboy - 1951
TTITLE6=I'm Thinking Tonight Of My Blue Eyes - 1951
TTITLE7=Whispering Hope - 1951
TTITLE8=It Is No Secret - 1951
TTITLE9=Molly Darling - 1951
TTITLE10=I'll Remember You, Love, In My Dreams - 1951
TTITLE11=Blue Dreams - 1951
TTITLE12=Blow Yo' Whistle, Freight Train - 1951
TTITLE13=Lonely River - 1951
TTITLE14=I'll Never Let You Go, Little Darlin' - 1951
TTITLE15=Texas Plains - 1951
TTITLE16=Born To Lose - 1951
TTITLE17=Too Many Tears - 1951
TTITLE18=Travelin' Blues - 1951
TTITLE19=A Faded Rose, A Broken Heart - 1951
TTITLE20=Yodeling Ranger - 1951
TTITLE21=Roll Along Kentucky Moon - 1951
TTITLE22=Zeb Turney's Gal - 1951
TTITLE23=The Sun Has Gone Down On Our Love - 1952
TTITLE24=I Walk Alone - 1952
TTITLE25=Old Shep - 1952
TTITLE26=Mississippi River Blues - 1952
TTITLE27=Linda Lou - 1952
EXTD=
EXTT0=
EXTT1=
EXTT2=
EXTT3=
EXTT4=
EXTT5=
EXTT6=
EXTT7=
EXTT8=
EXTT9=
EXTT10=
EXTT11=
EXTT12=
EXTT13=
EXTT14=
EXTT15=
EXTT16=
EXTT17=
EXTT18=
EXTT19=
EXTT20=
EXTT21=
EXTT22=
EXTT23=
EXTT24=
EXTT25=
EXTT26=
EXTT27=
PLAYORDER=
